# xmcd
# Copyright (C) 1995-1998 Ti Kan
#
# Track frame offsets:
#       150
#       4088
#       22125
#       36803
#       58334
#       81066
#       86247
#       106189
#       124140
#       137552
#       153521
#       158021
#       176577
#       200539
#       221814
#       224295
#
# Disc length: 3222 seconds
#
# Revision: 0
# Processed by: cddbd v1.5.2PL0 Copyright (c) Steve Scherf et al.
# Submitted via: CD-Import v1.0
#
DISCID=e10c9410
DTITLE=India.arie - Testimony Vol. 2: Love and Politics
DYEAR=2009
DGENRE=
TTITLE0=Intro, Grains
TTITLE1=Therapy (Feat. Gramps Morgan)
TTITLE2=Ghetto
TTITLE3=Chocolate High (Feat. Musiq Soulchild)
TTITLE4=He Heals Me
TTITLE5=Interlude, Grains
TTITLE6=Pearls (Feat. Dobet Gnahore)
TTITLE7=River Rise
TTITLE8=Yellow (Feat. Terrell Carter)
TTITLE9=Better Way
TTITLE10=Interlude, Grains
TTITLE11=Long Goodbye
TTITLE12=Psalms 23 (Feat. Mc Lyte)
TTITLE13=The Cure (Feat. Sezen Aksu)
TTITLE14=Outro, Grains
TTITLE15=A Beautiful Day (Bonus Track)
EXTD=
EXTT0=
EXTT1=
EXTT2=
EXTT3=
EXTT4=
EXTT5=
EXTT6=
EXTT7=
EXTT8=
EXTT9=
EXTT10=
EXTT11=
EXTT12=
EXTT13=
EXTT14=
EXTT15=
PLAYORDER=
